<?xml version="1.0" encoding="utf-8"?>
<!-- Generator: Adobe Illustrator 15.0.0, SVG Export Plug-In . SVG Version: 6.00 Build 0)  -->
<!DOCTYPE svg PUBLIC "-//W3C//DTD SVG 1.1//EN" "http://www.w3.org/Graphics/SVG/1.1/DTD/svg11.dtd">
<svg version="1.1" id="Layer_1" xmlns="http://www.w3.org/2000/svg" xmlns:xlink="http://www.w3.org/1999/xlink" x="0px" y="0px"
	 width="480px" height="100px" viewBox="0 0 480 100" style="enable-background:new 0 0 480 100;" xml:space="preserve">
<style type="text/css">
<![CDATA[
	.st0{clip-path:url(#SVGID_2_);fill:url(#SVGID_4_);}
	.st1{filter:url(#Adobe_OpacityMaskFilter);}
	.st2{fill:#1C75BC;}
	.st3{fill:#2B3990;}
	.st4{clip-path:url(#SVGID_2_);mask:url(#SVGID_3_);fill:url(#SVGID_5_);}
	.st5{fill:none;}
	.st6{fill:none;stroke:#2B3990;stroke-width:2.5;stroke-miterlimit:10;}
]]>
</style>
<g>
	<defs>
		<polygon id="SVGID_1_" points="60,39.1 41.4,21 22.7,75.2 51.5,47.3 60,69.6 68.6,47.3 97.3,75.2 78.6,21 		"/>
	</defs>
	<clipPath id="SVGID_2_">
		<use xlink:href="#SVGID_1_"  style="overflow:visible;"/>
	</clipPath>
	<defs>
		<filter id="Adobe_OpacityMaskFilter" filterUnits="userSpaceOnUse" x="22.7" y="21" width="74.6" height="54.2">
			<feColorMatrix  type="matrix" values="1 0 0 0 0  0 1 0 0 0  0 0 1 0 0  0 0 0 1 0"/>
		</filter>
	</defs>
	<mask maskUnits="userSpaceOnUse" x="22.7" y="21" width="74.6" height="54.2" id="SVGID_3_">
		<g class="st1">
			
				<linearGradient id="SVGID_4_" gradientUnits="userSpaceOnUse" x1="-156.002" y1="355.999" x2="-155.002" y2="355.999" gradientTransform="matrix(0 54.1942 54.1942 0 -19233.041 8475.3887)">
				<stop  offset="0" style="stop-color:#000000"/>
				<stop  offset="8.393736e-02" style="stop-color:#060606"/>
				<stop  offset="0.1938" style="stop-color:#161616"/>
				<stop  offset="0.318" style="stop-color:#313131"/>
				<stop  offset="0.4519" style="stop-color:#575757"/>
				<stop  offset="0.5" style="stop-color:#666666"/>
				<stop  offset="0.5502" style="stop-color:#7F7F7F"/>
				<stop  offset="0.6681" style="stop-color:#B6B6B6"/>
				<stop  offset="0.7699" style="stop-color:#DEDEDE"/>
				<stop  offset="0.8506" style="stop-color:#F6F6F6"/>
				<stop  offset="0.9" style="stop-color:#FFFFFF"/>
				<stop  offset="1" style="stop-color:#FFFFFF"/>
			</linearGradient>
			<rect x="22.7" y="21" class="st0" width="74.6" height="54.2"/>
		</g>
	</mask>
	
		<linearGradient id="SVGID_5_" gradientUnits="userSpaceOnUse" x1="-156.0029" y1="355.9971" x2="-155.0034" y2="355.9971" gradientTransform="matrix(0 54.1942 54.1942 0 -19232.9473 8475.4512)">
		<stop  offset="0" style="stop-color:#27AAE1"/>
		<stop  offset="0.5" style="stop-color:#27AAE1"/>
		<stop  offset="0.5562" style="stop-color:#24A0DA"/>
		<stop  offset="0.7067" style="stop-color:#1F88C9"/>
		<stop  offset="0.8265" style="stop-color:#1D7ABF"/>
		<stop  offset="0.9" style="stop-color:#1C75BC"/>
		<stop  offset="1" style="stop-color:#1C75BC"/>
	</linearGradient>
	<rect x="22.7" y="21" class="st4" width="74.6" height="54.2"/>
</g>
<polyline class="st6" points="78.7,20.9 60,69.6 41.4,20.9 "/>
<polygon class="st6" points="78.7,20.9 22.8,75.3 41.4,20.9 97.3,75.3 "/>
<g>
	<path class="st3" d="M310.2,21.6v21.2c0,3.6-6.4,7.7-15.5,7.7s-15.5-4-15.5-7.7V21.6h-4.2v21.2c0,6.7,8.7,11.9,19.7,11.9
		c11.1,0,19.7-5.2,19.7-11.9V21.6H310.2z"/>
	<path class="st3" d="M325.1,50.4L325.1,50.4L325.1,50.4l0-28.8h-4.2v28.8l0,0c0,2.3,1.9,4.2,4.2,4.2v0h31.2v-4.2H325.1z"/>
	<path class="st3" d="M252.7,21.5h-27.2h-2.1h-2.1v33.1h2.1v0h29.3c9.1,0,16.6-7.4,16.6-16.6C269.2,28.9,261.8,21.5,252.7,21.5
		 M252.7,50.4h-27.2V25.7h27.2c6.8,0,12.4,5.5,12.4,12.4S259.5,50.4,252.7,50.4"/>
	<path class="st3" d="M197.9,21.5h-13.9c-9.1,0-16.6,7.4-16.6,16.6c0,9.1,7.4,16.6,16.6,16.6h13.9c9.1,0,16.6-7.4,16.6-16.6
		C214.5,28.9,207.1,21.5,197.9,21.5 M197.9,50.4h-13.9c-6.8,0-12.4-5.5-12.4-12.4s5.5-12.4,12.4-12.4h13.9c6.8,0,12.4,5.5,12.4,12.4
		S204.7,50.4,197.9,50.4"/>
	<polygon class="st3" points="155.6,21.6 137.2,39.1 118.8,21.6 115.7,21.6 113.6,21.6 113.6,54.6 117.8,54.6 117.8,26.5 
		137.2,44.8 156.5,26.5 156.5,54.6 160.7,54.6 160.7,21.6 158.6,21.6 	"/>
	<path class="st3" d="M447,54.6h5.2l-9.5-13.2c4.9-0.6,8.7-4.8,8.7-9.9c0-5.5-4.4-9.9-9.9-10l0,0H413h-2.1h-2.1v33h4.2V41.5h24.5
		L447,54.6z M413,25.8h28.3c3.2,0,5.7,2.6,5.7,5.8c0,3.2-2.6,5.8-5.7,5.8H413V25.8z"/>
	<polygon class="st3" points="367.4,54.6 382.5,28.2 397.6,54.6 402.4,54.6 382.5,19.8 362.5,54.6 	"/>
</g>
<g>
	<path class="st2" d="M342.7,72.7h-9.8c-1,0-1.8-0.8-1.8-1.8s0.8-1.8,1.8-1.8h12.3v-1.5h-12.3l0,0c-1.8,0-3.2,1.5-3.2,3.3
		s1.5,3.3,3.2,3.3l0,0h9.8c1,0,1.8,0.8,1.8,1.8s-0.8,1.8-1.8,1.8h-12.3v1.5h12.3c1.8,0,3.3-1.5,3.3-3.3
		C345.9,74.2,344.5,72.7,342.7,72.7"/>
	<path class="st2" d="M443.3,72.7h-9.8c-1,0-1.8-0.8-1.8-1.8s0.8-1.8,1.8-1.8h12.3v-1.5h-12.3l0,0c-1.8,0-3.2,1.5-3.2,3.3
		s1.5,3.3,3.2,3.3l0,0h9.8c1,0,1.8,0.8,1.8,1.8s-0.8,1.8-1.8,1.8h-12.3v1.5h12.3c1.8,0,3.3-1.5,3.3-3.3
		C446.5,74.2,445.1,72.7,443.3,72.7"/>
	<path class="st2" d="M294.6,72.7h-9.8c-1,0-1.8-0.8-1.8-1.8s0.8-1.8,1.8-1.8h12.3v-1.5h-12.3l0,0c-1.8,0-3.2,1.5-3.2,3.3
		s1.5,3.3,3.2,3.3l0,0h9.8c1,0,1.8,0.8,1.8,1.8s-0.8,1.8-1.8,1.8h-12.3v1.5h12.3c1.8,0,3.3-1.5,3.3-3.3
		C297.9,74.2,296.4,72.7,294.6,72.7"/>
	<polygon class="st2" points="127.3,69.1 127.3,67.6 114.2,67.6 114.2,67.6 113.5,67.6 113.5,79.2 114.2,79.2 114.9,79.2 
		127.3,79.2 127.3,77.7 114.9,77.7 114.9,73.6 124.9,73.6 124.9,72.1 114.9,72.1 114.9,69.1 	"/>
	<polygon class="st2" points="180,69.1 180,67.6 166.9,67.6 166.9,67.6 166.2,67.6 166.2,79.2 166.9,79.2 167.6,79.2 180,79.2 
		180,77.7 167.6,77.7 167.6,73.6 177.6,73.6 177.6,72.1 167.6,72.1 167.6,69.1 	"/>
	<polygon class="st2" points="395.1,69.1 395.1,67.6 382,67.6 382,67.6 381.3,67.6 381.3,79.2 382,79.2 382.8,79.2 395.1,79.2 
		395.1,77.7 382.8,77.7 382.8,73.6 392.7,73.6 392.7,72.1 382.8,72.1 382.8,69.1 	"/>
	<path class="st2" d="M192.7,74.6h9.9c0,0,0,0,0,0l3.3,4.6h1.8l-3.6-5c1.1-0.6,1.9-1.8,1.9-3.1c0-1.9-1.6-3.5-3.5-3.5H192v0h-0.7
		v11.6h1.5V74.6z M192.7,69.1h9.9c1.1,0,2,0.9,2,2s-0.9,2-2,2h-9.9V69.1z"/>
	<polygon class="st2" points="369.2,67.6 355.3,67.6 355.3,69.1 361.5,69.1 361.5,79.2 363,79.2 363,69.1 369.2,69.1 	"/>
	<path class="st2" d="M222,69.1h10.3v-1.5H222c-3.2,0-5.8,2.6-5.8,5.8s2.6,5.8,5.8,5.8h8.8h1.5v-1.5v-3.1v-1.5h-1.5h-4.6v1.5h4.6
		v3.1H222c-2.4,0-4.3-1.9-4.3-4.3C217.7,71,219.6,69.1,222,69.1"/>
	<polygon class="st2" points="151.7,67.6 151.7,77.4 141,67.6 139.2,67.6 139.2,68 139.2,79.2 140.7,79.2 140.7,69.3 151.4,79.2 
		153.2,79.2 153.2,78.8 153.2,67.6 	"/>
	<polygon class="st2" points="251.8,73.3 257.2,68.3 258,67.6 257.9,67.7 258,67.6 255.8,67.6 251.1,72 246.3,67.6 244.2,67.6 
		244.3,67.8 244.1,67.6 245,68.4 250.3,73.3 250.3,74.7 250.3,79.2 251.8,79.2 251.8,74.7 	"/>
	<polygon class="st2" points="315,73.3 320.4,68.3 321.3,67.6 321.1,67.7 321.2,67.6 319,67.6 314.3,72 309.5,67.6 307.4,67.6 
		307.5,67.8 307.3,67.6 308.2,68.4 313.6,73.3 313.6,74.7 313.6,79.2 315,79.2 315,74.7 	"/>
	<polygon class="st2" points="419.7,67.6 413.3,73.7 406.8,67.6 405.8,67.6 405,67.6 405,79.2 406.5,79.2 406.5,69.3 413.3,75.8 
		420,69.3 420,79.2 421.5,79.2 421.5,67.6 420.8,67.6 	"/>
</g>
<rect x="-156" y="-256" class="st5" width="792" height="612"/>
</svg>
